<?xml version="1.0" encoding="UTF-8"?>
<!-- Generator: Adobe Illustrator 22.0.1, SVG Export Plug-In . SVG Version: 6.00 Build 0)  -->
<svg version="1.1" id="Layer_1" xmlns="http://www.w3.org/2000/svg" xmlns:xlink="http://www.w3.org/1999/xlink" x="0px" y="0px" viewBox="0 0 284.6 154.6" style="enable-background:new 0 0 284.6 154.6;" xml:space="preserve">
<style type="text/css">
	.st0{fill:#FFD500;}
	.st1{fill:#1072B9;}
	.st2{fill:none;stroke:#000000;stroke-width:0.42;}
</style>
<path class="st0" d="M165.2,33c0.1,0.6,0,1.3-0.4,1.8c-0.5,0.6-12.7,14.1-12.7,14.1c-3.4,4-4.2,1-5.7-2.2c-1.5-3.3-2.2-5.1-3.5-7.9  c-1.4-3-2.2-4.4-5.3-0.9c-3.8,4.1-12,13.5-12.7,14c-0.6,0.5-1.4,0.2-1.8-0.3c-3.7-5-5.6-7.9-6.6-14.5c-0.1-0.5-0.2-1.1,0.5-2.1  c10.5-12.5,23.6-17.6,39.9-18.5c0.8-0.1,1.4,0.4,1.8,0.8C161.3,19.8,164.3,27,165.2,33z"/>
<g>
	<path class="st1" d="M124.3,60.4c-0.1-0.8-0.2-1.1,0.4-1.8c0.5-0.6,12.7-14.1,12.7-14.1c3.4-4,4.2-1,5.6,2.2   c1.5,3.3,2.2,5.1,3.5,7.9c1.4,3,2.2,4.4,5.3,0.9c3.8-4.1,11.8-12.9,12.3-13.5c0.8-0.8,1.8-0.7,2.2-0.1c3.4,5.6,4.5,8.1,6.6,14.5   c0.2,0.4,0.2,1.1-0.5,2C162,71,149,76,132.7,76.9c-0.8,0.1-1.4-0.4-1.8-0.8C128.2,73.6,124.8,66.5,124.3,60.4z"/>
</g>
<g>
	<g>
		<path d="M40.1,100.3c-0.2-3.3-0.4-7.3-0.4-10.3h-0.1c-0.8,2.8-1.8,5.7-3,9l-4.2,11.5h-2.3l-3.9-11.3c-1.1-3.4-2-6.4-2.7-9.2h-0.1    c-0.1,3-0.2,6.9-0.5,10.5l-0.6,10.2h-2.9L21.1,87H25l4.1,11.5c1,2.9,1.8,5.5,2.4,8h0.1c0.6-2.4,1.5-5,2.5-8L38.3,87h3.9l1.5,23.8    h-3L40.1,100.3z"/>
		<path d="M50.8,90.6c-1.2,0-1.9-0.9-1.9-2c0-1.1,0.8-2,2-2c1.2,0,2,0.9,2,2C52.8,89.6,52,90.6,50.8,90.6L50.8,90.6z M49.3,110.8    V93.7h3.1v17.1H49.3z"/>
		<path d="M61.8,89.6v4.1h4.4v2.4h-4.4v9.2c0,2.1,0.6,3.3,2.3,3.3c0.8,0,1.3-0.1,1.8-0.2l0.1,2.4c-0.6,0.2-1.6,0.4-2.7,0.4    c-1.4,0-2.6-0.5-3.3-1.3c-0.8-1-1.2-2.5-1.2-4.5v-9.3h-2.6v-2.4h2.6v-3.1L61.8,89.6z"/>
		<path d="M74,89.6v4.1h4.4v2.4H74v9.2c0,2.1,0.6,3.3,2.3,3.3c0.8,0,1.3-0.1,1.8-0.2l0.1,2.4c-0.6,0.2-1.6,0.4-2.7,0.4    c-1.4,0-2.6-0.5-3.3-1.3c-0.8-1-1.2-2.5-1.2-4.5v-9.3h-2.6v-2.4H71v-3.1L74,89.6z"/>
		<path d="M96.7,106.1c0,1.8,0,3.3,0.1,4.7h-2.7L94,108h-0.1c-0.8,1.4-2.6,3.2-5.6,3.2c-2.7,0-5.9-1.5-5.9-7.5v-10h3.1v9.4    c0,3.2,1,5.5,3.8,5.5c2.1,0,3.5-1.4,4.1-2.9c0.2-0.4,0.3-1,0.3-1.6V93.7h3.1V106.1z"/>
		<path d="M102.4,98.3c0-1.8,0-3.2-0.1-4.6h2.8l0.2,2.8h0.1c0.8-1.6,2.8-3.2,5.6-3.2c2.4,0,6,1.4,6,7.3v10.2h-3.1v-9.8    c0-2.8-1-5.1-3.9-5.1c-2,0-3.6,1.4-4.2,3.2c-0.1,0.4-0.2,1-0.2,1.4v10.3h-3.1V98.3z"/>
		<path d="M124,90.6c-1.2,0-1.9-0.9-1.9-2c0-1.1,0.8-2,2-2c1.2,0,2,0.9,2,2C126,89.6,125.3,90.6,124,90.6L124,90.6z M122.5,110.8    V93.7h3.1v17.1H122.5z"/>
		<path d="M132.5,93.7l3.3,9.6c0.6,1.6,1,3,1.4,4.4h0.1c0.4-1.4,0.9-2.8,1.4-4.4l3.3-9.6h3.2l-6.7,17.1h-3l-6.5-17.1H132.5z"/>
		<path d="M150.2,102.7c0.1,4.2,2.7,5.9,5.8,5.9c2.2,0,3.6-0.4,4.7-0.8l0.6,2.2c-1.1,0.5-3,1.1-5.7,1.1c-5.2,0-8.4-3.5-8.4-8.6    c0-5.2,3.1-9.2,8-9.2c5.6,0,7,4.9,7,8c0,0.6,0,1.1-0.1,1.5L150.2,102.7z M159.2,100.5c0-1.9-0.8-5-4.3-5c-3.2,0-4.5,2.9-4.8,5    H159.2z"/>
		<path d="M166.6,99c0-2,0-3.7-0.1-5.3h2.7l0.1,3.3h0.1c0.8-2.3,2.7-3.7,4.8-3.7c0.3,0,0.6,0,0.8,0.1v2.9c-0.4,0-0.7-0.1-1.1-0.1    c-2.2,0-3.7,1.7-4.2,4c-0.1,0.5-0.1,1-0.1,1.5v9.1h-3.1L166.6,99z"/>
		<path d="M178.2,107.6c1,0.6,2.6,1.2,4.1,1.2c2.2,0,3.3-1.1,3.3-2.5c0-1.5-0.9-2.3-3.1-3.1c-3.1-1.1-4.5-2.8-4.5-4.8    c0-2.8,2.3-5,5.9-5c1.7,0,3.2,0.5,4.2,1.1l-0.7,2.2c-0.7-0.4-1.9-1-3.5-1c-1.8,0-2.8,1.1-2.8,2.3c0,1.4,1,2.1,3.2,2.9    c2.9,1.1,4.5,2.6,4.5,5.1c0,3-2.4,5.1-6.3,5.1c-1.9,0-3.6-0.5-4.8-1.2L178.2,107.6z"/>
		<path d="M194.6,90.6c-1.2,0-1.9-0.9-1.9-2c0-1.1,0.8-2,2-2c1.2,0,2,0.9,2,2C196.6,89.6,195.9,90.6,194.6,90.6L194.6,90.6z     M193.1,110.8V93.7h3.1v17.1H193.1z"/>
		<path d="M205.6,89.6v4.1h4.4v2.4h-4.4v9.2c0,2.1,0.6,3.3,2.3,3.3c0.8,0,1.3-0.1,1.8-0.2l0.1,2.4c-0.6,0.2-1.5,0.4-2.8,0.4    c-1.4,0-2.6-0.5-3.3-1.3c-0.8-1-1.2-2.5-1.2-4.5v-9.3H200v-2.4h2.6v-3.1L205.6,89.6z"/>
		<path d="M215.7,102.7c0.1,4.2,2.7,5.9,5.8,5.9c2.2,0,3.6-0.4,4.7-0.8l0.6,2.2c-1.1,0.5-3,1.1-5.7,1.1c-5.2,0-8.4-3.5-8.4-8.6    c0-5.2,3.1-9.2,8-9.2c5.6,0,7,4.9,7,8c0,0.6,0,1.1-0.1,1.5L215.7,102.7z M224.7,100.5c0-1.9-0.8-5-4.3-5c-3.2,0-4.5,2.9-4.8,5    H224.7z"/>
		<path d="M235.8,89.6v4.1h4.4v2.4h-4.4v9.2c0,2.1,0.6,3.3,2.3,3.3c0.8,0,1.3-0.1,1.8-0.2l0.1,2.4c-0.6,0.2-1.6,0.4-2.8,0.4    c-1.4,0-2.6-0.5-3.3-1.3c-0.8-1-1.2-2.5-1.2-4.5v-9.3h-2.6v-2.4h2.6v-3.1L235.8,89.6z"/>
		<path d="M245.8,102.7c0.1,4.2,2.7,5.9,5.8,5.9c2.2,0,3.6-0.4,4.7-0.8l0.6,2.2c-1.1,0.5-3,1.1-5.7,1.1c-5.2,0-8.4-3.5-8.4-8.6    c0-5.2,3.1-9.2,8-9.2c5.6,0,7,4.9,7,8c0,0.6,0,1.1-0.1,1.5L245.8,102.7z M254.9,100.5c0-1.9-0.8-5-4.3-5c-3.2,0-4.5,2.9-4.8,5    H254.9z"/>
		<path d="M266,89.6v4.1h4.4v2.4H266v9.2c0,2.1,0.6,3.3,2.3,3.3c0.8,0,1.3-0.1,1.8-0.2l0.1,2.4c-0.6,0.2-1.6,0.4-2.8,0.4    c-1.4,0-2.6-0.5-3.3-1.3c-0.8-1-1.2-2.5-1.2-4.5v-9.3h-2.6v-2.4h2.6v-3.1L266,89.6z"/>
	</g>
	<line class="st2" x1="18.8" y1="118.7" x2="270.8" y2="118.7"/>
	<g>
		<path d="M42.3,131.6c-0.1-1.4-0.2-3.1-0.2-4.3h0c-0.4,1.1-0.8,2.4-1.2,3.8l-1.8,4.8h-1l-1.6-4.7c-0.5-1.4-0.9-2.7-1.1-3.9h0    c0,1.2-0.1,2.9-0.2,4.4l-0.3,4.2h-1.2l0.7-9.9H36l1.7,4.8c0.4,1.2,0.7,2.3,1,3.3h0c0.3-1,0.6-2.1,1.1-3.3l1.8-4.8h1.6l0.6,9.9    h-1.3L42.3,131.6z"/>
		<path d="M50.3,126.1v9.9H49v-9.9H50.3z"/>
		<path d="M55.8,126.2c0.8-0.1,1.7-0.2,2.7-0.2c1.8,0,3.1,0.4,4,1.2c0.9,0.8,1.4,2,1.4,3.6c0,1.6-0.5,2.9-1.4,3.9    c-0.9,0.9-2.5,1.4-4.4,1.4c-0.9,0-1.7,0-2.3-0.1V126.2z M57.1,135c0.3,0.1,0.8,0.1,1.3,0.1c2.7,0,4.2-1.5,4.2-4.2    c0-2.4-1.3-3.8-4-3.8c-0.7,0-1.2,0.1-1.5,0.1V135z"/>
		<path d="M74.1,134.4c0.6,0.4,1.4,0.6,2.3,0.6c1.3,0,2.1-0.7,2.1-1.7c0-0.9-0.5-1.5-1.9-2c-1.6-0.6-2.6-1.4-2.6-2.8    c0-1.5,1.3-2.7,3.2-2.7c1,0,1.8,0.2,2.2,0.5l-0.4,1c-0.3-0.2-1-0.5-1.9-0.5c-1.4,0-1.9,0.8-1.9,1.5c0,0.9,0.6,1.4,2,1.9    c1.7,0.7,2.5,1.5,2.5,2.9c0,1.5-1.1,2.9-3.5,2.9c-1,0-2-0.3-2.5-0.6L74.1,134.4z"/>
		<path d="M86.4,136l-2.5-9.9h1.4l1.2,5c0.3,1.2,0.6,2.5,0.7,3.4h0c0.2-1,0.5-2.2,0.8-3.4l1.3-5h1.3l1.2,5c0.3,1.2,0.5,2.4,0.7,3.4    h0c0.2-1.1,0.5-2.2,0.8-3.4l1.3-5H96l-2.8,9.9h-1.3l-1.3-5.1c-0.3-1.3-0.5-2.2-0.6-3.2h0c-0.2,1-0.4,2-0.8,3.2l-1.4,5.2H86.4z"/>
		<path d="M105.5,131.3h-3.8v3.6h4.3v1.1h-5.6v-9.9h5.4v1.1h-4.1v3.1h3.8V131.3z"/>
		<path d="M110.9,126.2c0.8-0.1,1.7-0.2,2.7-0.2c1.8,0,3.1,0.4,4,1.2c0.9,0.8,1.4,2,1.4,3.6c0,1.6-0.5,2.9-1.4,3.9    c-0.9,0.9-2.5,1.4-4.4,1.4c-0.9,0-1.7,0-2.3-0.1V126.2z M112.2,135c0.3,0.1,0.8,0.1,1.3,0.1c2.7,0,4.2-1.5,4.2-4.2    c0-2.4-1.3-3.8-4-3.8c-0.7,0-1.2,0.1-1.5,0.1V135z"/>
		<path d="M129,131.3h-3.8v3.6h4.3v1.1h-5.6v-9.9h5.4v1.1h-4.1v3.1h3.8V131.3z"/>
		<path d="M134.4,136v-9.9h1.4l3.2,5c0.7,1.2,1.3,2.2,1.8,3.2l0,0c-0.1-1.3-0.1-2.5-0.1-4.1v-4.2h1.2v9.9h-1.3l-3.1-5    c-0.7-1.1-1.4-2.2-1.8-3.3l0,0c0.1,1.2,0.1,2.4,0.1,4.1v4.2H134.4z"/>
		<path d="M154,126.1v5.9c0,2.2,1,3.1,2.3,3.1c1.5,0,2.4-1,2.4-3.1v-5.9h1.3v5.8c0,3-1.6,4.3-3.7,4.3c-2,0-3.6-1.1-3.6-4.2v-5.8H154    z"/>
		<path d="M165.5,136v-9.9h1.4l3.2,5c0.7,1.2,1.3,2.2,1.8,3.2l0,0c-0.1-1.3-0.1-2.5-0.1-4.1v-4.2h1.2v9.9h-1.3l-3.1-5    c-0.7-1.1-1.4-2.2-1.8-3.3l0,0c0.1,1.2,0.1,2.4,0.1,4.1v4.2H165.5z"/>
		<path d="M179.7,126.1v9.9h-1.3v-9.9H179.7z"/>
		<path d="M187.3,136l-3.2-9.9h1.4l1.5,4.9c0.4,1.3,0.8,2.6,1.1,3.7h0c0.3-1.1,0.7-2.4,1.1-3.7l1.7-4.9h1.4l-3.5,9.9H187.3z"/>
		<path d="M201.7,131.3h-3.8v3.6h4.3v1.1h-5.6v-9.9h5.4v1.1h-4.1v3.1h3.8V131.3z"/>
		<path d="M207.1,126.2c0.6-0.1,1.6-0.2,2.5-0.2c1.4,0,2.3,0.3,2.9,0.8c0.5,0.4,0.8,1.1,0.8,1.9c0,1.3-0.8,2.2-1.9,2.5v0    c0.7,0.3,1.2,1,1.5,2c0.3,1.4,0.6,2.3,0.8,2.7h-1.3c-0.2-0.3-0.4-1.1-0.6-2.4c-0.3-1.4-0.8-1.9-2-1.9h-1.2v4.3h-1.3V126.2z     M208.3,130.7h1.3c1.4,0,2.2-0.7,2.2-1.9c0-1.3-0.9-1.8-2.3-1.8c-0.6,0-1,0.1-1.3,0.1V130.7z"/>
		<path d="M218,134.4c0.6,0.4,1.4,0.6,2.3,0.6c1.3,0,2.1-0.7,2.1-1.7c0-0.9-0.5-1.5-1.9-2c-1.6-0.6-2.6-1.4-2.6-2.8    c0-1.5,1.3-2.7,3.2-2.7c1,0,1.7,0.2,2.2,0.5l-0.4,1c-0.3-0.2-1-0.5-1.9-0.5c-1.4,0-1.9,0.8-1.9,1.5c0,0.9,0.6,1.4,2,1.9    c1.7,0.7,2.5,1.5,2.5,2.9c0,1.5-1.1,2.9-3.5,2.9c-1,0-2-0.3-2.5-0.6L218,134.4z"/>
		<path d="M230,126.1v9.9h-1.3v-9.9H230z"/>
		<path d="M237.3,127.2h-3v-1.1h7.3v1.1h-3v8.8h-1.3V127.2z"/>
		<path d="M248.7,136v-4.2l-3.1-5.7h1.5l1.4,2.7c0.4,0.7,0.7,1.4,1,2h0c0.3-0.6,0.6-1.3,1-2l1.4-2.7h1.4l-3.3,5.7v4.2H248.7z"/>
	</g>
</g>
</svg>